<mxfile host="app.diagrams.net" modified="2023-04-25T21:33:36.941Z" agent="Mozilla/5.0 (Macintosh; Intel Mac OS X 10_15_7) AppleWebKit/605.1.15 (KHTML, like Gecko) Version/16.4 Safari/605.1.15" version="21.2.2" etag="1nkYyoF7_Qyju2ciqUM9" type="github">
  <diagram name="페이지-1" id="Co8xw0z7OR0F91E2TwPi">
    <mxGraphModel>
      <root>
        <mxCell id="0" />
        <mxCell id="1" parent="0" />
      </root>
    </mxGraphModel>
  </diagram>
</mxfile>
